<?xml version="1.0" encoding="UTF-8"?>
<svg xmlns="http://www.w3.org/2000/svg" xmlns:xlink="http://www.w3.org/1999/xlink" width="16px" height="16px" viewBox="0 0 16 16" version="1.1">
<g id="surface1">
<path style=" stroke:none;fill-rule:nonzero;fill:rgb(0%,0%,0%);fill-opacity:1;" d="M 14.632812 6.121094 C 14.546875 5.867188 14.316406 5.691406 14.050781 5.667969 L 10.253906 5.367188 L 8.605469 1.726562 C 8.5 1.488281 8.261719 1.332031 8 1.332031 C 7.738281 1.332031 7.5 1.484375 7.394531 1.726562 L 5.746094 5.367188 L 1.949219 5.667969 C 1.6875 5.6875 1.460938 5.859375 1.371094 6.105469 C 1.285156 6.351562 1.347656 6.628906 1.535156 6.8125 L 4.34375 9.546875 L 3.351562 13.851562 C 3.289062 14.117188 3.394531 14.394531 3.621094 14.550781 C 3.84375 14.703125 4.144531 14.707031 4.371094 14.554688 L 8 12.132812 L 11.628906 14.554688 C 11.863281 14.710938 12.167969 14.703125 12.390625 14.539062 C 12.617188 14.375 12.71875 14.085938 12.640625 13.816406 L 11.421875 9.550781 L 14.445312 6.828125 C 14.644531 6.652344 14.714844 6.371094 14.632812 6.121094 Z M 14.632812 6.121094 "/>
</g>
</svg>
